<?xml version="1.0" encoding="utf-8"?>
<!-- Generator: Adobe Illustrator 26.0.3, SVG Export Plug-In . SVG Version: 6.00 Build 0)  -->
<svg version="1.1" id="Layer_1" xmlns="http://www.w3.org/2000/svg" xmlns:xlink="http://www.w3.org/1999/xlink" x="0px" y="0px"
	 viewBox="0 0 1089 288" style="enable-background:new 0 0 1089 288;" xml:space="preserve">
<style type="text/css">
	.st0{fill:none;stroke:#FFFFFF;stroke-width:30;stroke-miterlimit:10;}
	.st1{fill:none;stroke:#000000;stroke-width:30;stroke-miterlimit:10;}
	.st2{fill:none;stroke:#3FA9F5;stroke-width:30;stroke-miterlimit:10;}
	.st3{fill:none;}
	.st4{fill:#FFFFFF;stroke:#FFFFFF;stroke-width:3;stroke-miterlimit:10;}
	.st5{fill:#FFFFFF;stroke:#FFFFFF;stroke-width:2;stroke-miterlimit:10;}
</style>
<path class="st0" d="M27,171V90c0-34.2,28.8-63,63-63h62l1,144"/>
<line class="st0" x1="153" y1="108" x2="63" y2="108"/>
<path class="st0" d="M297,153h-81V27h86c22.1,0,40,17.9,40,40v37C342,126.1,319.1,153,297,153z"/>
<path class="st1" d="M463,162"/>
<path class="st1" d="M391,13"/>
<path class="st1" d="M526,13"/>
<path class="st0" d="M702,153H601c-13.8,0-25-11.2-25-25V30c0-1.7,1.3-3,3-3h123"/>
<path class="st2" d="M842,153h-55c-22.1,0-40-17.9-40-40V67c0-22.1,17.9-40,40-40h55c22.1,0,40,17.9,40,40v46
	C882,135.1,864.1,153,842,153z"/>
<line class="st2" x1="610" y1="89" x2="736" y2="89"/>
<path class="st0" d="M1008,90h-47c-13.8,0-25-11.2-25-25V54c0-13.8,13.2-27,27-27h99"/>
<path class="st0" d="M927,153h110c13.8,0,25-11.2,25-25v-13c0-13.8-11.2-25-25-25h-56"/>
<g>
	<rect x="169.5" y="205.5" class="st3" width="841.5" height="82.5"/>
	<path class="st4" d="M169.4,269.3l23.2-53.2h8.6l24.8,53.2h-9.1l-7.1-16.1h-25.3l-6.6,16.1H169.4z M186.8,247.5h20.5l-6.3-14.8
		c-1.9-4.5-3.4-8.2-4.3-11c-0.8,3.4-1.9,6.8-3.3,10.2L186.8,247.5z"/>
	<path class="st4" d="M250.9,216.1h24.2c4.8,0,8.4,0.2,10.7,0.5s4.5,1.1,6.3,2.2s3.4,2.6,4.6,4.4s1.9,3.9,1.9,6.2
		c0,2.5-0.8,4.8-2.3,6.9c-1.5,2.1-3.6,3.6-6.2,4.7c3.7,0.9,6.5,2.6,8.5,4.8s3,4.9,3,8c0,2.4-0.6,4.8-1.9,7.1s-3,4.1-5.2,5.5
		c-2.2,1.4-5,2.2-8.2,2.5c-2,0.2-7,0.3-14.7,0.4h-20.6L250.9,216.1L250.9,216.1z M263.1,224.9v12.3h8c4.8,0,7.7-0.1,8.9-0.2
		c2.1-0.2,3.7-0.9,4.9-1.9s1.8-2.4,1.8-4.2c0-1.6-0.5-3-1.5-4s-2.6-1.6-4.6-1.9c-1.2-0.1-4.7-0.2-10.4-0.2L263.1,224.9L263.1,224.9z
		 M263.1,246.1v14.2h11.3c4.4,0,7.2-0.1,8.4-0.3c1.8-0.3,3.3-1,4.4-2.1c1.1-1.1,1.7-2.6,1.7-4.5c0-1.6-0.4-2.9-1.3-4.1
		c-0.9-1.1-2.1-1.9-3.8-2.4c-1.7-0.5-5.3-0.8-10.8-0.8L263.1,246.1L263.1,246.1z"/>
	<path class="st4" d="M311.9,269.3v-53.2h44.9v9h-32.6v11.8h30.4v9h-30.4v14.5h33.8v9H311.9z"/>
	<path class="st4" d="M368.4,269.3v-53.2h12.2v23.6l24.7-23.6h16.4l-22.8,20.7l24,32.5h-15.8l-16.6-25l-9.9,8.9v16.1H368.4z"/>
	<path class="st4" d="M429.3,269.3v-53.2h44.9v9h-32.6v11.8h30.4v9h-30.4v14.5h33.8v9H429.3z"/>
	<path class="st4" d="M485.8,269.3v-53.2h11.9l24.8,35.6v-35.6h11.3v53.2h-12.3l-24.4-34.7v34.7H485.8z"/>
	<path class="st4" d="M613.7,250.7l8,1.8c-1.7,5.8-4.7,10.2-9.1,13.2s-9.7,4.6-16,4.6c-6.5,0-11.8-1.2-15.9-3.5
		c-4.1-2.3-7.2-5.7-9.3-10.1c-2.1-4.4-3.2-9.2-3.2-14.3c0-5.5,1.2-10.4,3.6-14.5c2.4-4.1,5.8-7.3,10.3-9.4c4.4-2.1,9.3-3.2,14.7-3.2
		c6,0,11.1,1.4,15.3,4.1s7,6.5,8.6,11.4l-7.9,1.6c-1.4-3.9-3.4-6.7-6.1-8.5c-2.7-1.8-6-2.6-10.1-2.6c-4.7,0-8.5,1-11.7,2.9
		s-5.3,4.6-6.6,7.9c-1.3,3.3-1.9,6.7-1.9,10.2c0,4.5,0.8,8.5,2.2,11.9c1.5,3.4,3.8,5.9,7,7.6c3.2,1.7,6.6,2.5,10.3,2.5
		c4.5,0,8.3-1.1,11.4-3.4C610.5,258.5,612.6,255.1,613.7,250.7z"/>
	<path class="st4" d="M629.1,243.4c0-8.8,2.7-15.8,8.1-20.8s12.3-7.5,20.9-7.5c5.6,0,10.6,1.2,15.1,3.5s7.9,5.6,10.2,9.8
		c2.3,4.2,3.5,9,3.5,14.3c0,5.4-1.2,10.2-3.7,14.5c-2.5,4.3-6,7.5-10.5,9.7s-9.4,3.3-14.7,3.3c-5.7,0-10.8-1.2-15.3-3.6
		c-4.5-2.4-7.9-5.7-10.2-9.9S629.1,248.1,629.1,243.4z M637.4,243.5c0,6.4,2,11.5,5.9,15.2c3.9,3.7,8.8,5.5,14.8,5.5
		c6,0,11-1.9,14.9-5.6c3.9-3.7,5.8-9,5.8-15.9c0-4.3-0.8-8.1-2.5-11.4c-1.7-3.2-4.1-5.7-7.3-7.5c-3.2-1.8-6.8-2.7-10.8-2.7
		c-5.7,0-10.5,1.7-14.6,5.1S637.4,235.5,637.4,243.5z"/>
	<path class="st4" d="M697,269.3v-53.2h12l14.3,37.7c1.3,3.5,2.3,6.1,2.9,7.9c0.7-1.9,1.8-4.8,3.2-8.5l14.5-37.1h10.8v53.2h-7.7
		v-44.6l-17.6,44.6h-7.2L704.8,224v45.3L697,269.3L697,269.3z"/>
	<path class="st4" d="M767.7,269.3v-53.2h22.8c4,0,7.1,0.2,9.2,0.5c3,0.4,5.5,1.3,7.5,2.5c2,1.2,3.6,2.9,4.8,5.1
		c1.2,2.2,1.8,4.6,1.8,7.3c0,4.5-1.6,8.4-4.9,11.5c-3.3,3.1-9.2,4.7-17.8,4.7h-15.5v21.7H767.7z M775.7,241.4h15.6
		c5.2,0,8.8-0.9,11-2.5c2.2-1.7,3.3-4.1,3.3-7.2c0-2.2-0.6-4.1-1.9-5.7s-3-2.6-5.1-3.1c-1.3-0.3-3.8-0.5-7.5-0.5h-15.5L775.7,241.4
		L775.7,241.4z"/>
	<path class="st4" d="M811.2,269.3l23.2-53.2h8.6l24.8,53.2h-9.1l-7.1-16.1h-25.3l-6.6,16.1H811.2z M828.6,247.5h20.5l-6.3-14.8
		c-1.9-4.5-3.4-8.2-4.3-11c-0.8,3.4-1.9,6.8-3.3,10.2L828.6,247.5z"/>
	<path class="st4" d="M874.1,269.3v-53.2h8.2l31.8,41.8v-41.8h7.7v53.2h-8.2l-31.8-41.8v41.8H874.1z"/>
	<path class="st4" d="M952.2,269.3v-22.6l-23.3-30.7h9.7l11.9,16.1c2.2,3,4.2,6,6.2,9c1.8-2.8,4-5.9,6.6-9.4l11.7-15.7h9.3
		l-24.1,30.7v22.6L952.2,269.3L952.2,269.3z"/>
</g>
<path class="st5" d="M374.7,13c-0.8,0-1.2,0.8-0.9,1.5l76.6,150.1c1.4,3.2,5.8,3.2,7.2,0l76.6-150.1c0.3-0.7-0.1-1.5-0.9-1.5h-33.7
	c-0.4,0-0.7,0.2-0.9,0.6L454,106.9l-44.7-93.3c-0.2-0.4-0.5-0.6-0.9-0.6C408.4,13,374.7,13,374.7,13z"/>
</svg>
