<svg id="Layer_1" data-name="Layer 1" xmlns="http://www.w3.org/2000/svg" viewBox="0 0 1065 277.5"><defs><style>.cls-1,.cls-2{fill:none;stroke-width:30px;}.cls-1,.cls-3,.cls-8{stroke:#000;}.cls-1,.cls-2,.cls-3,.cls-8{stroke-miterlimit:10;}.cls-2{stroke:#3fa9f5;}.cls-3{font-size:74.39px;stroke-width:3px;font-family:Leelawadee;}.cls-4{font-family:Leelawadee-Bold, Leelawadee;font-weight:700;letter-spacing:0em;}.cls-5{letter-spacing:-0.01em;}.cls-6{letter-spacing:0em;}.cls-7{letter-spacing:-0.08em;}.cls-8{stroke-width:2px;}</style></defs><path class="cls-1" d="M27,171V90c0-34.25,28.75-63,63-63h62l1,144" transform="translate(-12 -12)"/><line class="cls-1" x1="141" y1="96" x2="51" y2="96"/><path class="cls-1" d="M297,153H216V27h86a40,40,0,0,1,40,40v37C342,126.09,319.09,153,297,153Z" transform="translate(-12 -12)"/><path class="cls-1" d="M463,162" transform="translate(-12 -12)"/><path class="cls-1" d="M391,13" transform="translate(-12 -12)"/><path class="cls-1" d="M526,13" transform="translate(-12 -12)"/><path class="cls-1" d="M702,153H601a25,25,0,0,1-25-25V30a3,3,0,0,1,3-3H702" transform="translate(-12 -12)"/><rect class="cls-2" x="735" y="15" width="135" height="126" rx="40"/><line class="cls-2" x1="598" y1="77" x2="724" y2="77"/><path class="cls-1" d="M1008,90H961a25,25,0,0,1-25-25V54c0-13.81,13.19-27,27-27h99" transform="translate(-12 -12)"/><path class="cls-1" d="M927,153h110a25,25,0,0,0,25-25V115a25,25,0,0,0-25-25H981" transform="translate(-12 -12)"/><text class="cls-3" transform="translate(159 258.24) scale(1.14 1)">A <tspan class="cls-4" x="68.36" y="0">BEKEN</tspan><tspan x="302.28" y="0"> </tspan><tspan class="cls-5" x="322.66" y="0">C</tspan><tspan class="cls-6" x="367.74" y="0">OM</tspan><tspan class="cls-7" x="484.77" y="0">P</tspan><tspan x="520.69" y="0">ANY</tspan></text><path class="cls-8" d="M374.67,13a1,1,0,0,0-.89,1.53l76.6,150.07a3.93,3.93,0,0,0,7.24,0l76.6-150.07a1,1,0,0,0-.89-1.53H499.62a1,1,0,0,0-.9.58L454,106.9,409.28,13.58a1,1,0,0,0-.9-.58Z" transform="translate(-12 -12)"/></svg>