<?xml version="1.0" encoding="utf-8"?>
<!-- Generator: Adobe Illustrator 26.0.3, SVG Export Plug-In . SVG Version: 6.00 Build 0)  -->
<svg version="1.1" id="Layer_1" xmlns="http://www.w3.org/2000/svg" xmlns:xlink="http://www.w3.org/1999/xlink" x="0px" y="0px"
	 viewBox="0 0 1089 288" style="enable-background:new 0 0 1089 288;" xml:space="preserve">
<style type="text/css">
	.st0{fill:none;stroke:#FFFFFF;stroke-width:30;stroke-miterlimit:10;}
	.st1{fill:none;stroke:#000000;stroke-width:30;stroke-miterlimit:10;}
	.st2{fill:none;stroke:#3FA9F5;stroke-width:30;stroke-miterlimit:10;}
	.st3{opacity:0.5;}
	.st4{fill:none;}
	.st5{fill:#FFFFFF;stroke:#FFFFFF;stroke-width:3;stroke-miterlimit:10;}
	.st6{fill:#FFFFFF;stroke:#FFFFFF;stroke-width:2;stroke-miterlimit:10;}
</style>
<path class="st0" d="M27,171V90c0-34.25,28.75-63,63-63h62l1,144"/>
<line class="st0" x1="153" y1="108" x2="63" y2="108"/>
<path class="st0" d="M297,153h-81V27h86c22.09,0,40,17.91,40,40v37C342,126.09,319.09,153,297,153z"/>
<path class="st1" d="M463,162"/>
<path class="st1" d="M391,13"/>
<path class="st1" d="M526,13"/>
<path class="st0" d="M702,153H601c-13.81,0-25-11.19-25-25V30c0-1.66,1.34-3,3-3h123"/>
<path class="st2" d="M842,153h-55c-22.09,0-40-17.91-40-40V67c0-22.09,17.91-40,40-40h55c22.09,0,40,17.91,40,40v46
	C882,135.09,864.09,153,842,153z"/>
<line class="st2" x1="610" y1="89" x2="736" y2="89"/>
<path class="st0" d="M1008,90h-47c-13.81,0-25-11.19-25-25V54c0-13.81,13.19-27,27-27h99"/>
<path class="st0" d="M927,153h110c13.81,0,25-11.19,25-25v-13c0-13.81-11.19-25-25-25h-56"/>
<g class="st3">
	<rect x="169.5" y="205.5" class="st4" width="841.5" height="82.5"/>
	<path class="st5" d="M169.38,269.34l23.23-53.25h8.62L226,269.34h-9.12l-7.06-16.13h-25.3l-6.64,16.13H169.38z M186.83,247.47
		h20.51l-6.31-14.75c-1.93-4.48-3.36-8.16-4.29-11.04c-0.77,3.41-1.86,6.8-3.26,10.17L186.83,247.47z"/>
	<path class="st5" d="M250.88,216.09h24.18c4.79,0,8.36,0.18,10.71,0.53c2.35,0.35,4.46,1.08,6.31,2.2s3.4,2.6,4.64,4.45
		s1.86,3.93,1.86,6.23c0,2.49-0.76,4.78-2.29,6.87c-1.53,2.08-3.6,3.64-6.21,4.69c3.69,0.94,6.52,2.55,8.5,4.83s2.97,4.95,2.97,8.03
		c0,2.42-0.64,4.78-1.92,7.07c-1.28,2.29-3.03,4.12-5.24,5.48c-2.21,1.37-4.95,2.21-8.19,2.52c-2.04,0.19-6.95,0.32-14.73,0.36
		h-20.59V216.09z M263.09,224.95v12.31h8.01c4.76,0,7.72-0.06,8.87-0.18c2.09-0.22,3.73-0.85,4.93-1.91s1.79-2.44,1.79-4.16
		c0-1.65-0.52-2.98-1.55-4.01s-2.57-1.65-4.6-1.87c-1.21-0.12-4.69-0.18-10.44-0.18H263.09z M263.09,246.13v14.24h11.31
		c4.4,0,7.19-0.11,8.38-0.33c1.82-0.29,3.29-1,4.44-2.12c1.14-1.13,1.71-2.63,1.71-4.52c0-1.6-0.44-2.95-1.32-4.07
		c-0.88-1.11-2.15-1.93-3.82-2.43c-1.67-0.51-5.28-0.76-10.83-0.76H263.09z"/>
	<path class="st5" d="M311.87,269.34v-53.25h44.86v9.01h-32.64v11.81h30.37v8.97h-30.37v14.49h33.8v8.97H311.87z"/>
	<path class="st5" d="M368.41,269.34v-53.25h12.21v23.65l24.68-23.65h16.42l-22.78,20.74l24.02,32.51h-15.81l-16.63-24.99l-9.9,8.9
		v16.09H368.41z"/>
	<path class="st5" d="M429.27,269.34v-53.25h44.86v9.01h-32.64v11.81h30.37v8.97h-30.37v14.49h33.8v8.97H429.27z"/>
	<path class="st5" d="M485.77,269.34v-53.25h11.88l24.76,35.56v-35.56h11.35v53.25H521.5l-24.39-34.72v34.72H485.77z"/>
	<path class="st5" d="M613.69,250.67l8.01,1.78c-1.68,5.79-4.7,10.2-9.06,13.24c-4.36,3.04-9.69,4.56-15.99,4.56
		c-6.52,0-11.82-1.17-15.91-3.5c-4.08-2.34-7.19-5.72-9.33-10.15c-2.13-4.43-3.2-9.19-3.2-14.28c0-5.54,1.2-10.38,3.61-14.51
		c2.41-4.13,5.83-7.26,10.28-9.41c4.44-2.14,9.33-3.21,14.67-3.21c6.05,0,11.14,1.36,15.27,4.07s7,6.53,8.62,11.44l-7.88,1.63
		c-1.4-3.87-3.44-6.7-6.11-8.46c-2.67-1.77-6.03-2.65-10.07-2.65c-4.65,0-8.54,0.98-11.66,2.94c-3.12,1.96-5.32,4.6-6.58,7.9
		c-1.27,3.31-1.9,6.71-1.9,10.23c0,4.53,0.75,8.48,2.25,11.86c1.5,3.38,3.83,5.9,6.99,7.57c3.16,1.67,6.59,2.51,10.28,2.51
		c4.48,0,8.28-1.14,11.39-3.41C610.49,258.53,612.59,255.15,613.69,250.67z"/>
	<path class="st5" d="M629.13,243.4c0-8.84,2.7-15.76,8.09-20.76c5.39-5,12.35-7.5,20.88-7.5c5.58,0,10.62,1.17,15.1,3.52
		c4.48,2.35,7.9,5.62,10.25,9.83c2.35,4.2,3.53,8.97,3.53,14.29c0,5.4-1.24,10.23-3.71,14.49c-2.48,4.26-5.98,7.49-10.52,9.68
		s-9.44,3.29-14.69,3.29c-5.7,0-10.79-1.21-15.27-3.63c-4.48-2.42-7.88-5.73-10.19-9.92S629.13,248.08,629.13,243.4z M637.38,243.51
		c0,6.42,1.96,11.47,5.88,15.17c3.92,3.69,8.84,5.54,14.75,5.54c6.03,0,10.98-1.86,14.88-5.59c3.89-3.73,5.84-9.02,5.84-15.87
		c0-4.33-0.83-8.12-2.5-11.35c-1.67-3.23-4.1-5.74-7.3-7.52c-3.21-1.78-6.8-2.67-10.79-2.67c-5.67,0-10.54,1.71-14.63,5.14
		S637.38,235.5,637.38,243.51z"/>
	<path class="st5" d="M697.05,269.34v-53.25h12.05l14.32,37.7c1.32,3.51,2.28,6.14,2.89,7.88c0.69-1.94,1.76-4.78,3.22-8.54
		l14.48-37.05h10.77v53.25h-7.72v-44.57l-17.58,44.57h-7.22l-17.5-45.33v45.33H697.05z"/>
	<path class="st5" d="M767.7,269.34v-53.25h22.82c4.02,0,7.08,0.17,9.2,0.51c2.97,0.44,5.46,1.27,7.47,2.49
		c2.01,1.22,3.62,2.94,4.85,5.14c1.22,2.2,1.84,4.62,1.84,7.26c0,4.53-1.64,8.36-4.91,11.5c-3.27,3.14-9.19,4.7-17.75,4.7h-15.52
		v21.65H767.7z M775.71,241.4h15.64c5.17,0,8.84-0.85,11.02-2.54c2.17-1.69,3.26-4.08,3.26-7.16c0-2.23-0.64-4.13-1.92-5.72
		s-2.96-2.63-5.06-3.14c-1.35-0.31-3.84-0.47-7.47-0.47h-15.48V241.4z"/>
	<path class="st5" d="M811.15,269.34l23.23-53.25h8.62l24.76,53.25h-9.12l-7.06-16.13h-25.3l-6.64,16.13H811.15z M828.61,247.47
		h20.51l-6.31-14.75c-1.93-4.48-3.36-8.16-4.29-11.04c-0.77,3.41-1.86,6.8-3.26,10.17L828.61,247.47z"/>
	<path class="st5" d="M874.08,269.34v-53.25h8.21l31.78,41.81v-41.81h7.68v53.25h-8.21l-31.78-41.84v41.84H874.08z"/>
	<path class="st5" d="M952.24,269.34v-22.56l-23.32-30.69h9.74l11.93,16.05c2.2,3,4.25,6.01,6.15,9.01c1.82-2.79,4.02-5.92,6.6-9.41
		l11.72-15.66h9.33l-24.14,30.69v22.56H952.24z"/>
</g>
<path class="st6" d="M374.67,13c-0.75,0-1.24,0.84-0.88,1.53l76.6,150.07c1.44,3.2,5.8,3.2,7.24,0l76.6-150.07
	c0.35-0.69-0.13-1.53-0.88-1.53h-33.72c-0.38,0-0.73,0.22-0.89,0.58L454,106.9l-44.72-93.32c-0.17-0.35-0.52-0.58-0.89-0.58H374.67z
	"/>
<g>
</g>
<g>
</g>
<g>
</g>
<g>
</g>
<g>
</g>
<g>
</g>
<g>
</g>
<g>
</g>
<g>
</g>
<g>
</g>
<g>
</g>
<g>
</g>
<g>
</g>
<g>
</g>
<g>
</g>
</svg>
