<?xml version="1.0" encoding="utf-8"?>
<!-- Generator: Adobe Illustrator 26.0.0, SVG Export Plug-In . SVG Version: 6.00 Build 0)  -->
<svg version="1.1" id="Layer_1" xmlns="http://www.w3.org/2000/svg" xmlns:xlink="http://www.w3.org/1999/xlink" x="0px" y="0px"
	 viewBox="0 0 402 403" style="enable-background:new 0 0 402 403;" xml:space="preserve">
<style type="text/css">
	.st0{fill-rule:evenodd;clip-rule:evenodd;fill:#888889;}
	.st1{fill:none;stroke:#FFFFFF;stroke-width:27.4677;stroke-linecap:round;stroke-linejoin:round;stroke-miterlimit:10;}
	.st2{fill-rule:evenodd;clip-rule:evenodd;fill:#2BAAE2;}
</style>
<path class="st0" d="M199.22,6.03c107.3,0,194.32,87.02,194.32,194.32s-87.02,194.32-194.32,194.32S4.9,307.65,4.9,200.35
	S91.92,6.03,199.22,6.03L199.22,6.03z M199.22,48.79c83.62,0,151.46,67.84,151.46,151.56s-67.84,151.46-151.46,151.46
	c-83.72,0-151.56-67.74-151.56-151.46S115.5,48.79,199.22,48.79L199.22,48.79z"/>
<path class="st0" d="M199.22,81.36c65.74,0,118.99,53.25,118.99,118.99c0,65.74-53.25,118.99-118.99,118.99
	S80.23,266.09,80.23,200.35C80.23,134.61,133.48,81.36,199.22,81.36L199.22,81.36z M199.22,107.53c51.25,0,92.72,41.56,92.72,92.81
	s-41.46,92.81-92.72,92.81s-92.81-41.56-92.81-92.81S147.97,107.53,199.22,107.53L199.22,107.53z"/>
<path class="st0" d="M199.22,131.21c38.17,0,69.14,30.97,69.14,69.14s-30.97,69.14-69.14,69.14c-38.17,0-69.14-30.97-69.14-69.14
	S161.05,131.21,199.22,131.21L199.22,131.21z M199.22,146.4c29.77,0,53.95,24.18,53.95,53.95s-24.18,53.95-53.95,53.95
	c-29.77,0-53.95-24.18-53.95-53.95S169.45,146.4,199.22,146.4L199.22,146.4z"/>
<path class="st1" d="M200.52,186.96c0-0.1-0.1-0.2-0.1-0.2l-61.34-61.34V86.95c0-2.9-1.1-5.59-3.1-7.59L71.54,14.22
	c-3.1-3.1-7.69-4-11.69-2.4c-4,1.7-6.59,5.59-6.59,9.99v32.17H20.28c-4.4,0-8.29,2.6-9.89,6.69c-1.7,4-0.8,8.59,2.3,11.69
	l65.14,65.14c2,2,4.7,3.1,7.59,3.1h38.46l61.34,61.34c0,0,0.1,0.1,0.2,0.1c4.2,4,10.49,4.1,14.79,0
	C204.61,197.75,204.51,191.16,200.52,186.96L200.52,186.96z"/>
<path class="st2" d="M200.52,186.96c0-0.1-0.1-0.2-0.1-0.2l-61.34-61.34V86.95c0-2.9-1.1-5.59-3.1-7.59L71.54,14.22
	c-3.1-3.1-7.69-4-11.69-2.4c-4,1.7-6.59,5.59-6.59,9.99v32.17H20.28c-4.4,0-8.29,2.6-9.89,6.69c-1.7,4-0.8,8.59,2.3,11.69
	l65.14,65.14c2,2,4.7,3.1,7.59,3.1h38.46l61.34,61.34c0,0,0.1,0.1,0.2,0.1c4.2,4,10.49,4.1,14.79,0
	C204.61,197.75,204.51,191.16,200.52,186.96L200.52,186.96z"/>
</svg>
