<?xml version="1.0" encoding="utf-8"?>
<!-- Generator: Adobe Illustrator 26.0.0, SVG Export Plug-In . SVG Version: 6.00 Build 0)  -->
<svg version="1.1" id="Layer_1" xmlns="http://www.w3.org/2000/svg" xmlns:xlink="http://www.w3.org/1999/xlink" x="0px" y="0px"
	 viewBox="0 0 426 428" style="enable-background:new 0 0 426 428;" xml:space="preserve">
<style type="text/css">
	.st0{fill-rule:evenodd;clip-rule:evenodd;fill:#888889;}
	.st1{fill-rule:evenodd;clip-rule:evenodd;fill:#2BAAE2;}
</style>
<path class="st0" d="M337.94,139.55c-12.99,0-235.68,0-249.87,0L9.44,219.97l204.41,202.29l202.71-202.29L337.94,139.55z
	 M121.13,228.85l57.65,129.19L48.2,228.85H121.13z M146.21,228.85h133.58L213.45,379.6L146.21,228.85z M304.87,228.85h73.03
	L247.72,358.68L304.87,228.85z M325.85,157.38l52.35,53.56h-73.33l-23.38-53.56H325.85z M256.41,157.38l23.38,53.56H146.11
	l23.48-53.56H256.41z M100.05,157.38h44.46l-23.38,53.56H47.7L100.05,157.38z"/>
<path class="st1" d="M212.95,6.47L212.95,6.47c7.29,0,13.29,5.89,13.29,13.19v52.25c0,7.19-5.99,13.19-13.29,13.19l0,0
	c-7.29,0-13.19-5.99-13.19-13.19V19.66C199.76,12.36,205.66,6.47,212.95,6.47L212.95,6.47z"/>
<path class="st1" d="M327.35,33.55L327.35,33.55c6.29,3.6,8.49,11.69,4.9,17.98l-26.18,45.26c-3.6,6.29-11.69,8.49-17.98,4.8l0,0
	c-6.29-3.6-8.49-11.69-4.9-17.98l26.18-45.26C312.96,32.05,321.05,29.85,327.35,33.55L327.35,33.55z"/>
<path class="st1" d="M98.55,33.55L98.55,33.55c-6.29,3.6-8.49,11.69-4.8,17.98l26.08,45.26c3.6,6.29,11.79,8.49,18.08,4.8l0,0
	c6.29-3.6,8.49-11.69,4.8-17.98l-26.08-45.26C112.94,32.05,104.85,29.85,98.55,33.55L98.55,33.55z"/>
</svg>
