<?xml version="1.0" encoding="utf-8"?>
<!-- Generator: Adobe Illustrator 26.0.0, SVG Export Plug-In . SVG Version: 6.00 Build 0)  -->
<svg version="1.1" id="Layer_1" xmlns="http://www.w3.org/2000/svg" xmlns:xlink="http://www.w3.org/1999/xlink" x="0px" y="0px"
	 viewBox="0 0 503 426" style="enable-background:new 0 0 503 426;" xml:space="preserve">
<style type="text/css">
	.st0{fill-rule:evenodd;clip-rule:evenodd;fill:#888889;}
	.st1{fill-rule:evenodd;clip-rule:evenodd;fill:#2BAAE2;}
	.st2{fill:none;stroke:#C8C8C8;stroke-width:2.4095;stroke-miterlimit:10;}
</style>
<path class="st0" d="M494.78,247.92c-4.4-5.99-109.3-147.46-243.28-147.46c-134.08,0-238.98,141.47-243.38,147.46
	c-4.2,5.69-4.2,13.49,0,19.18c4.4,5.99,109.3,147.46,243.38,147.46c133.98,0,238.88-141.47,243.28-147.46
	C498.98,261.41,498.98,253.62,494.78,247.92L494.78,247.92z M251.5,382.1c-98.71,0-184.23-93.91-209.51-124.59
	c25.28-30.67,110.6-124.59,209.51-124.59c98.61,0,184.13,93.91,209.41,124.59C435.63,288.28,350.41,382.1,251.5,382.1L251.5,382.1z"
	/>
<path class="st0" d="M251.5,160c-53.75,0-97.51,43.76-97.51,97.51s43.76,97.51,97.51,97.51c53.75,0,97.41-43.76,97.41-97.51
	S305.25,160,251.5,160L251.5,160z M251.5,322.55c-35.87,0-65.04-29.17-65.04-65.04s29.17-64.94,65.04-64.94
	c35.77,0,64.94,29.07,64.94,64.94S287.27,322.55,251.5,322.55L251.5,322.55z"/>
<path class="st1" d="M251.5,285.09c15.09,0,27.47-12.39,27.47-27.57c0-15.19-12.39-27.47-27.47-27.47
	c-15.19,0-27.57,12.29-27.57,27.47C223.93,272.7,236.32,285.09,251.5,285.09L251.5,285.09z"/>
<path class="st2" d="M-48.02-91.57"/>
<path class="st1" d="M245.11,10.54L245.11,10.54c7.29,0,13.19,5.89,13.19,13.19v52.25c0,7.19-5.89,13.19-13.19,13.19l0,0
	c-7.29,0-13.19-5.99-13.19-13.19V23.73C231.92,16.43,237.81,10.54,245.11,10.54L245.11,10.54z"/>
<path class="st1" d="M359.5,37.61L359.5,37.61c6.29,3.6,8.49,11.69,4.9,17.98l-26.18,45.26c-3.6,6.29-11.69,8.49-17.98,4.8l0,0
	c-6.29-3.6-8.49-11.69-4.9-17.98l26.18-45.26C345.12,36.11,353.21,33.92,359.5,37.61L359.5,37.61z"/>
<path class="st1" d="M130.71,37.61L130.71,37.61c-6.29,3.6-8.49,11.69-4.8,17.98l26.08,45.26c3.6,6.29,11.79,8.49,18.08,4.8l0,0
	c6.29-3.6,8.39-11.69,4.8-17.98L148.8,42.41C145.1,36.11,137.01,33.92,130.71,37.61L130.71,37.61z"/>
</svg>
